           =!HD DESI ROCKER RELEASES!=/=!DK GROUP HD BLURAY RELEAESEES!=

===================================================================================

            Anaconda (1997) Bluray Rip In [Hindi-Eng] 6CH.AC3 By !!!dip

===================================================================================

Storyline:

When a documentary crew traveling through the Amazon jungle, picks up a stranded man, they are unaware of the trouble that will occur. This stranger's hobby is to capture the giant Anaconda snake, and plans to continue targeting it on their boat, by any means necessary. Written by FilmFanUk  

Cast:

Jennifer Lopez...........Terri Flores
Ice Cube.................Danny Rich
Jon Voight...............Paul Serone
Eric Stoltz..............Dr. Steven Cale
Jonathan Hyde............Warren Westridge
Owen Wilson..............Gary Dixon
Kari Wuhrer..............Denise Kalberg
Vincent Castellanos......Mateo
Danny Trejo..............Poacher
Frank Welker.............Anaconda (voice) 

 
Directors : Luis Llosa
Writers : Hans Bauer, Jim Cash
Stars:Jon Voight, Jennifer Lopez and Eric Stoltz 
Format : Color, Dubbed, Subtitled, Widescreen
Language :[Hindi-Eng]6CH.AC3
Release Date :11 April 1997 (USA) 
Run Time : 1h:25m:40s
Color :Color
Filming Locations:Amazonas, Brazil
SUBTITLE:ENGLISH


Video Specifications:

Release Title/Year/Language:Anaconda(1997)Bluray Rip In[Hindi-Eng]6CH.AC3 By !!!dip
Genre                      : Adventure | Horror | Thriller   
Source                      : Bluray
Bit rate                    : 2336 Kbps
Width                       : 1280 pixels
Height                      : 528 pixels
Display aspect ratio        : 2.40:1
Frame rate                  : 25.000 fps
Original frame rate         : 23.976 fps
Color space                 : YUV
Chroma subsampling          : 4:2:0
Bit depth                   : 8 bits
Scan type                   : Progressive
Bits/(Pixel*Frame)          : 0.138
Stream size                 : 1.43 GiB (73%)
Resolution                  : 1280 x 528 pixels
Team                        : DK Group HD Bluray Releases/HD DESI ROCKER RELEAESEES


Audio Specifications:


Audio #1
ID                               : 2
Format                           : AC-3
Format/Info                      : Audio Coding 3
Mode extension                   : CM (complete main)
Muxing mode                      : Header stripping
Codec ID                         : A_AC3
Duration                         : 1h 25mn
Bit rate mode                    : Constant
Bit rate                         : 384 Kbps
Channel(s)                       : 6 channels
Channel positions                : Front: L C R, Side: L R, LFE
Sampling rate                    : 48.0 KHz
Bit depth                        : 16 bits
Compression mode                 : Lossy
Stream size                      : 235 MiB (12%)
Title                            : !!!dip
Language                         : English


Audio #2
ID                               : 3
Format                           : AC-3
Format/Info                      : Audio Coding 3
Mode extension                   : CM (complete main)
Muxing mode                      : Header stripping
Codec ID                         : A_AC3
Duration                         : 1h 25mn
Bit rate mode                    : Constant
Bit rate                         : 448 Kbps
Channel(s)                       : 6 channels
Channel positions                : Front: L C R, Side: L R, LFE
Sampling rate                    : 48.0 KHz
Bit depth                        : 16 bits
Compression mode                 : Lossy
Delay relative to video          : 2s 0ms
Stream size                      : 275 MiB (14%)
Title                            : !!!dip
Language                         : Hindi


SAMPLE IMAGE:
 
http://www.pix2links.com/images/60937346543107147661.jpg
 
http://www.pix2links.com/images/52413334212635286815.jpg
 
http://www.pix2links.com/images/93613109153169329362.jpg
 
http://www.pix2links.com/images/27678420350836580744.jpg
 
http://www.pix2links.com/images/18368444328563405232.jpg
 
http://www.pix2links.com/images/72712047881280452148.jpg


SAMPLE VIDEO INCLUDED:

